<?xml version="1.0" encoding="UTF-8"?>
<svg id="Layer_1" xmlns="http://www.w3.org/2000/svg" xmlns:xlink="http://www.w3.org/1999/xlink" version="1.1" viewBox="0 0 477.7 189.8">
  <!-- Generator: Adobe Illustrator 30.1.0, SVG Export Plug-In . SVG Version: 2.1.1 Build 136)  -->
  <defs>
    <linearGradient id="linear-gradient" x1="235.8" y1="-189.9" x2="235.8" y2="-324" gradientTransform="translate(0 -185.1) scale(1 -1)" gradientUnits="userSpaceOnUse">
      <stop offset="0" stop-color="#c8dd75"/>
      <stop offset=".8" stop-color="#6ebe45"/>
      <stop offset="1" stop-color="#5ba645"/>
    </linearGradient>
  </defs>
  <g isolation="isolate">
    <g id="Layer_11">
      <path d="M343.5,153c-71.8,1-143.5,1-215.3,0-26.4-.4-53.1-22.8-53.4-49.5v-3.1c.3-26.7,27-49,53.4-49.5,71.8-1,143.5-1,215.3,0,26.4.4,53.1,22.8,53.4,49.5v3.1c-.3,26.7-27,49-53.4,49.5Z" fill="#c9c9c9" isolation="isolate" mix-blend-mode="multiply"/>
      <path d="M343.5,147.4c-71.8,1-143.5,1-215.3,0-26.4-.4-53.1-22.8-53.4-49.5v-3.1c.3-26.7,27-49,53.4-49.5,71.8-1,143.5-1,215.3,0,26.4.4,53.1,22.8,53.4,49.5v3.1c-.3,26.7-27,49-53.4,49.5Z" fill="#56853c"/>
      <path d="M343.5,142.7c-71.8,1-143.5,1-215.3,0-26.4-.4-53.1-22.8-53.4-49.5v-3.1c.3-26.7,27-49,53.4-49.5,71.8-1,143.5-1,215.3,0,26.4.4,53.1,22.8,53.4,49.5v3.1c-.3,26.7-27,49-53.4,49.5Z" fill="#5b8d3e"/>
      <path d="M343.5,136.5c-71.8,1-143.5,1-215.3,0-26.4-.4-53.1-22.8-53.4-49.5v-3.1c.3-26.7,27-49,53.4-49.5,71.8-1,143.5-1,215.3,0,26.4.4,53.1,22.8,53.4,49.5v3.1c-.3,26.7-27,49-53.4,49.5Z" fill="url(#linear-gradient)" stroke="#5e9741" stroke-miterlimit="10" stroke-width="1.4"/>
      <g isolation="isolate">
        <g isolation="isolate">
          <g isolation="isolate">
            <g isolation="isolate">
              <path d="M159.4,101.4h-7.8l-9.5-14.5c-1.3.5-1.7,1.5-1.7,3.5v11h-7.6v-11c0-4.2,1.9-7.6,6.1-8.4l-5.6-8.6h7.7l8.5,13c1.4-.5,1.9-1.5,1.9-3.5v-9.5h7.6v9.8c0,4.9-2.9,7.2-6.2,8.2l6.5,10Z" fill="#231f20"/>
              <path d="M184.3,95.5h3.5v5.9h-24v-5.9h12.9v-16.2h-12.9v-5.9h20.6v22.1Z" fill="#231f20"/>
              <path d="M216.1,73.4v28h-7.6v-22.1h-16.6v-5.9h24.2ZM191.9,85.4h7.6v16h-7.6v-16Z" fill="#231f20"/>
              <path d="M255.6,95.5h3.5v5.9h-24v-5.9h12.9v-16.2h-12.9v-5.9h20.6v22.1Z" fill="#231f20"/>
              <path d="M266.3,101.4l7.7-22.1h-12.7v-10.5h7.3v4.7h15.2l-9.5,28h-8Z" fill="#231f20"/>
              <path d="M320.1,73.4v14.9c0,9.4-4.2,13.1-14,13.1h-15.4l-3.1-28h7.4l2.4,22.1h7.3c6.1,0,8.1-2,8.1-8v-14.1h7.3ZM300.9,90.9v-17.4h7.2v17.4h-7.2Z" fill="#231f20"/>
              <path d="M329.6,101.4l7.7-22.1h-12.7v-10.5h7.3v4.7h15.2l-9.5,28h-8Z" fill="#231f20"/>
            </g>
          </g>
        </g>
      </g>
    </g>
  </g>
</svg>