<?xml version="1.0" encoding="UTF-8"?>
<svg id="Layer_1" xmlns="http://www.w3.org/2000/svg" xmlns:xlink="http://www.w3.org/1999/xlink" version="1.1" viewBox="0 0 1080 1920">
  <!-- Generator: Adobe Illustrator 30.1.0, SVG Export Plug-In . SVG Version: 2.1.1 Build 136)  -->
  <defs>
    <clipPath id="clippath">
      <rect width="1080" height="1920" fill="none"/>
    </clipPath>
  </defs>
  <rect width="1080" height="1920" fill="#f34"/>
  <g clip-path="url(#clippath)">
    <path d="M588.4,995.3c-48.8,33.7-110,28.6-136.7-11.5-26.7-40.1-8.8-99.9,40-133.6,48.8-33.7,110-28.6,136.7,11.5,26.7,40.1,8.8,99.9-40,133.6" fill="#221f20"/>
    <path d="M586.8,988.1c-45.8,31.7-103.3,26.8-128.4-10.8-25.1-37.6-8.3-93.8,37.5-125.5,45.8-31.7,103.3-26.8,128.4,10.8,25.1,37.6,8.3,93.8-37.5,125.5" fill="#f34"/>
    <path d="M596.2,896.5c-4.1-4.1-10.8-12-12.6-22.3-.6-3.1-1.5-6.4-3.8-8.5-22.7-21.9-53.6-23.2-75.2-19.3-7.7-.5-29.4-6.9-37.3,2.4-4.6,5.4-2.6,14-1.3,18.6.2.8,2.1,5,1.5,5.6,0,0,1.5.8,1.4.9-25.5,31.6-35,79.9-12.5,107.4,28.9,35.2,81.2,32.8,111,17.9-72.3,23.3-62.8-78.9-15.3-57.5,5.1,2.3,15.9,6.3,22.2,4.9,8.8-1.9,10.9-9,13.2-14.7l10.4-27.9c1-2.6.3-5.5-1.6-7.4" fill="#221f20"/>
    <path d="M573.2,903.8c-.1.7-1.1.6-1.2,0-.8-9.3-5.1-24.8-34.6-23-.8,0-1-.5-.2-.7,13.3-3.3,28.8-1.4,33.6-.1,1.2.3,0,3.8.1,5.1.6,3.9,4.1,9.9,2.3,18.9M533.4,862.8c-2.7-.3-4.7-2.2-4.4-4.1.2-1.9,2.6-3.2,5.3-2.9,2.7.3,4.7,2.2,4.4,4.1-.2,1.9-2.6,3.2-5.3,2.9M546.4,861.6c.4-1.3,2.1-1.8,3.9-1.3s2.9,2,2.5,3.3c-.4,1.3-2.1,1.8-3.9,1.3-1.8-.6-2.9-2-2.5-3.3M502.4,861.7c-11.6,0-16.7,9.7-19.9,14.4-.5-.7-10.2-15-6.1-19.2,4-4,18.7.5,26.3,3.3.8.3.6,1.5-.3,1.5M477.4,897c-2.4,4.1-6.4,6.2-9,4.7-2.6-1.5-2.8-6.1-.4-10.1,2.4-4.1,6.4-6.2,9-4.7,2.6,1.5,2.8,6.1.4,10.1M465.7,917.9c-.7,3.6-3.1,6.1-5.4,5.7-2.3-.4-3.6-3.7-2.9-7.3.7-3.6,3.1-6.1,5.4-5.7,2.3.4,3.6,3.7,2.9,7.3M458.8,939.6c-1.4,0-2.5-1.7-2.4-3.7,0-2,1.3-3.5,2.7-3.4,1.4,0,2.5,1.7,2.4,3.7,0,2-1.3,3.5-2.7,3.4M587.5,902.2c1,0,6.6-1.1,6.6-1.1,0,0,0,0,0,0-.3-.2-11-6.5-14.2-24.5-.6-3.1-1.7-6.4-4-8.6-28.2-25.8-68.8-16.5-71-14-12.7-3-29.6-7.5-34.2-.9-2.8,4,1,10.2,3.1,17.7.2.6.8,2.6.1,3.3-58.6,62-16.6,156.1,77.6,130.8-2.6.6-6.9,1-9.6,1-20.1,0-34-15.6-34-35.7s2-13.6,5.5-19.1c-8.3,6.5-13.7,16.4-14.3,27.5-.3-1.5-.6-2.9-.7-4.5-2.2-21.2,12-40.1,32.3-43.8,5.9-1.7,13.3-1.5,22.2,1.3,5.7,1.7,16.2,7.4,23.6,6.2,2.6-.4,4.7-2.9,7.1-9,0,0,2.3-5,2.3-5-3.8,5.3-25.8,1.7-21.6-6.2,4.2-7.9,17.3,14,23.9-1.3,0,0,0,0,0,0l2.2-6.1c.4-1.2.1-2.6-.9-3.5-3.2-2.6-2.7-4.4-1.9-4.6" fill="#fff"/>
  </g>
</svg>