<?xml version="1.0" encoding="UTF-8"?>
<svg xmlns="http://www.w3.org/2000/svg" xmlns:xlink="http://www.w3.org/1999/xlink" version="1.1" viewBox="0 0 680.3 566.9">
  <!-- Generator: Adobe Illustrator 30.1.0, SVG Export Plug-In . SVG Version: 2.1.1 Build 136)  -->
  <defs>
    <linearGradient id="linear-gradient" x1="337.5" y1="688.7" x2="337.5" y2="267.2" gradientTransform="translate(0 -200)" gradientUnits="userSpaceOnUse">
      <stop offset="0" stop-color="#f7b97b"/>
      <stop offset="1" stop-color="#f7b167"/>
    </linearGradient>
    <linearGradient id="linear-gradient1" x1="55.3" y1="479.2" x2="564" y2="479.2" gradientTransform="translate(0 -200)" gradientUnits="userSpaceOnUse">
      <stop offset="0" stop-color="#ffcc95"/>
      <stop offset="1" stop-color="#ffc686"/>
    </linearGradient>
    <linearGradient id="linear-gradient2" x1="103.6" y1="483.3" x2="516" y2="483.3" xlink:href="#linear-gradient1"/>
    <radialGradient id="radial-gradient" cx="249.1" cy="423.7" fx="249.1" fy="423.7" r="30.4" gradientTransform="translate(0 -201.1)" gradientUnits="userSpaceOnUse">
      <stop offset="0" stop-color="#f56c48"/>
      <stop offset="1" stop-color="#f1491e"/>
    </radialGradient>
    <radialGradient id="radial-gradient1" cx="286.1" cy="411.7" fx="286.1" fy="411.7" r="16.7" gradientTransform="translate(0 -201.1)" gradientUnits="userSpaceOnUse">
      <stop offset="0" stop-color="#f56c48"/>
      <stop offset="1" stop-color="#f1491e"/>
    </radialGradient>
    <radialGradient id="radial-gradient2" cx="339.1" cy="426.8" fx="339.1" fy="426.8" r="34.2" gradientTransform="translate(0 -201.1)" gradientUnits="userSpaceOnUse">
      <stop offset="0" stop-color="#f56c48"/>
      <stop offset="1" stop-color="#f1491e"/>
    </radialGradient>
    <radialGradient id="radial-gradient3" cx="392.2" cy="426.9" fx="392.2" fy="426.9" r="27" gradientTransform="translate(0 -201.1)" gradientUnits="userSpaceOnUse">
      <stop offset="0" stop-color="#f56c48"/>
      <stop offset="1" stop-color="#f1491e"/>
    </radialGradient>
    <radialGradient id="radial-gradient4" cx="423.8" cy="411.7" fx="423.8" fy="411.7" r="16.7" gradientTransform="translate(0 -201.1)" gradientUnits="userSpaceOnUse">
      <stop offset="0" stop-color="#f56c48"/>
      <stop offset="1" stop-color="#f1491e"/>
    </radialGradient>
  </defs>
  <g isolation="isolate">
    <g id="Layer_1">
      <g>
        <path d="M561.9,98.6c-2.1-4.6-5.4-9.6-7.7-14.5-21.7-.9-44.1-.5-62,3.4-3,.6-38.6-4.7-67.9,2.3-5.4,1.3-54.7,9.3-54.7,9.3,0,0-16.8,9-22-4.1s-24-16.2-36.3-15.9c-12.4.3-43.8,2.4-43.8,2.4l-25.9-17.1-34.7-1-13.5,3.6,47,421.7s18.3.3,27.7,0,12.3-1.9,14.3-5.4c2.1-3.5,24.3-43.3,24.3-43.3l50.8,48.7h38.9s12.9-2.8,13.8-5.8c.9-3.1,3.7-45.5,3.7-45.5l34.3,51.4h96.4l11.1-3.6,21.5-23.4s2.1-37.9,2.1-43.1-7.4-43.3-8.1-50.3c-.7-7,3.9-60.8,6-72.7,2.1-11.8,1.7-36.3,3.5-49.9.9-7.2-.2-40.9-1.5-71.1-6.7-14.7-10.4-61.3-17.2-75.9v-.2h0Z" fill="#e99f67"/>
        <path d="M568.6,297.3c.5-7.8,1.4-15.7,2.5-23.5v-90.5s-13.1-93.8-22.8-93.5c-1.3,0-44.6,14.6-65.9,16-18.2,1.2-24.7-10.5-45.5-9.3-33.7,2-58.5.2-67.8,6.5-3.4,2.3-17.2,23.9-29.2.6-12-23.3-75.9-14.1-75.9-14.1l-25.9-16.7-44.8-5.6c-.5,2.3-33.8,3.1-35.5,4.5-13.8,12.4-37.3,5-35.4,37.2l-18.4,46.5v44.4c6.2,27.1,3.4,56.8,0,86.6v104.1c1.5,9.4,1.3,18.6,0,27.5v57.2c4.4,5,9.1,9.4,14,13.5h122.2c9-8.5,19.9-9,29.5-2.9,7.9-24.8,19.6-44.6,25.5-69.5,9.8,19.8,3.9,44.6,11.8,59.5,5.9,7.4,25.5-2.5,33.4,5,3.7,3.4,7.5,6,11.4,7.9h35.5c5.4-2.6,10.2-6.2,14.1-10.4,3.9-5,5.9-19.8,7.9-29.8,3.9,12.4,5.9,34.7,9.8,34.7,7.2,2,14.5,3.8,21.9,5.4h105.3c8.3-8.1,15.8-19.7,24.7-28.7v-37.8c-13.1-40.4-7.8-82.7-2.5-124.9h.1Z" fill="url(#linear-gradient)"/>
        <path d="M333.5,116l13.3,5.8,1,16.8,26-29.5s40.7-3.8,55.6-3.8,53.3,8.6,53.3,8.6c0,0,62.6-9.3,64.3-8.7,1.7.6,14,53.8,15.7,64.3,1.7,10.4,1.4,104.4.7,114.5-.7,10-7.9,77.6-7.9,92s5.5,65.8,5.5,65.8l-16.8,37.6s-61.5-1.1-69.4,0-47.7-8.2-48.7-11.5-18.9-36.7-22.3-35.7-15.9,39.8-15.9,39.8c0,0-17.4,10.1-29.1,4.4s-43.9-10.2-47.7-10.7c-3.8-.5-14.9-62.8-15.4-62s-24.8,54.2-25.9,57.9c-1.2,3.7-25.9,21.3-28.4,17.9s-83.4-3.7-93-3.1c-9.6.7-34-1-35-6.2-1-5.1,1.8-72,0-74.9s-4.1-41.1-4.1-41.1c0,0,2.1-81.6,3.8-91.5,1.7-9.8-4.1-62-3.8-62.2.3-.1,4.1-47.5,4.1-47.5l23.1-48.4s58.6-26.7,61.7-25c3.1,1.7,43.9-1.1,43.9-1.1l23.7,26.6s48.7-8,52.8-5.7c4.1,2.3,14.8,16.5,14.8,16.5h0Z" fill="url(#linear-gradient1)"/>
        <path d="M493.7,447.5c-1.6-4.4-3-35.6-3-35.6l-.6,50.9-6,25.9h5.4c.2-.7.4-1.4.6-2.1,2-7.7,6.7-28.6,6.7-28.6,0,0,3.5-8.3,3.9-13.7.4-5.4,22-24.7,22-24.7l-24.5,21.3s-2.9,11-4.5,6.6h0Z" fill="#e99f67"/>
        <g opacity=".5">
          <path d="M179.6,153.8c.4-.2.8-.5,1.2-.7.6-.5,1.3-.9,2.1-1.3,1.3-.9,2.5-2,3.7-3.1,2.2-2,4.6-4.4,5.8-7.5.4-.9.7-2.1.3-3.1-.4-1.1-1.3-1.8-2.1-2.3-2.1-1.4-4.5-2.1-6.8-2.9-2.3,1.4-5.4,2.5-8.6,3.5-3.5-.4-5.4-1.7-5.8-2.1-3-4.1-.2-7.1-.7-10.7-8,2.4-15.6,1.6-23.2,1.5-8.5,0-13.3-5.1-21.4-6-1.9.8-4.3,1-5.8,2.5v11.8c10.2,7.8,24.6,10.2,37.5,14.7,0,3.7-.4,7.5,5.1,9.9,3.1.6,6.1.3,9.7.2,2.3-1.6,5.8-2.6,8.7-4.2.1,0,.2-.1.3-.2h0Z" fill="#f5dcb5" isolation="isolate" mix-blend-mode="multiply" opacity=".5"/>
          <path d="M366,278.7c-3.5.5-6.7,2-9.8,1.2-3.3-1-3.7-2.7-4.8-4.2-4.6-5.8-12.4-9.4-22.4-11.2-9.3-1.7-18.4-3.2-23.8-8.9-1.8-1.9-5.7-2.7-9.2-3.4-2.2-.4-4.7-.7-4.6-3.4,19.5-2.4,21.7-16.3,37.5-21.9,1-.4,1.9-1.3,1.8-2.1-.6-6.7,5.9-13.5-1-20-.7-4.4,4.4-5.3,9.7-6.1,6.9-1.1,14.4-1.6,18.3-6.1,5.1-4.1,1.1-6.1-4.5-8-10.4-3.6-11.5-5.4-8.2-12.3.7-1.4,1.1-2.8,2.2-4,4.9-5.9,4.7-11.6-.3-17.5-2.2-2.5-1.9-4.9.8-7.4,3.4-3.2,5.2-5.9,5.3-8.4-.4-1.3-.9-2.5-1.3-3.8-1.9-2.4-5.7-4.5-11.5-6.5-13.5-4.6-27.7-8.7-36.6-17.1-1.7-1.6-4.6-2.4-7.5-2.9-5.8-.9-11-3-16.7-3.9-9.2-1.4-12.5-4.6-10.9-10.2.2-.6.3-1.2.4-1.8-2.9.3-4.6.6-4.6.6l-25.9-16.7-41.9-4.7h-3.7c-3.1,2.5-14.4,8.8-23.7,13.8,1.9,1.4,3.5,3.2,5.9,4.1,2.9,1.1,6.7-.2,10.2,1.7,3.8,3.4,7.4-9.8,7.1-5.1-.3,4.2-1.5,8.5,1.2,12.7,8.6,1.8,17.4,0,25.8,1.1,5.9,3.2,11,7,18.6,9,2.8.7,4.9,2.7,7,4.3,1.4,1,1.4,2.3-1.3,3.5-9.6-3.1-19.3,0-29.3.3-2.9,2-2.3,4.9-6.6,7l-8.9,3.9c-3.6,1.7,34.3,3.4,34.3,3.4,3.2-2.6,5.2-5.4,9.4-6.7,5.2-1.7,8.2-3.9,8.1-7.2,4.4-2.1,8.2-2.4,12.6-1.1,4.4,1.4,8.9,2.7,13.5,3.5,5.2.9,8.6,2.7,11.2,5.5-3.1,2.5-8.9,3.7-7.5,8,4.2,3.2,15.3,4.9,9.5,11.4,1.9,1.9,3.7,3.4,6.9,3.6,4.6-.3,7.6-2.5,11.5-3.6,5,.1,10-.3,15.5.4,7.2,5.2,11,10.8,3.7,17.4,4,4.2,6.1,8.3,2.7,12.9-.6.9-.3,2-.3,3v7.9c0,2.7,4.5,4.6,3.5,8-9.9,2.5-16.7,7-15.9,14.2-13,2.3-13.7,2.8-13.5,11.2.1,4.9-.3,9.7-3.2,14-5,2.8-11.4,3.6-16.1,2.2-8.2-2.6-17.4-2-25.5-4.2-2.9-.8-5.9-.6-8.3,1.2-3.7,5.8,4.1,10.5,5,16.3-4.6.5-8.3.7-12.2-.2-4-1-8.1-1.8-12.2-2.5-6.8-1.2-12.9.7-16.7,4.8,3.2,4.7,11.5,5.3,17,7.6-.3,1.8-1.6,2.5-3.2,2.8-1.9.4-3.9.5-5.5,1.7-1.8,2.1-4.6,4.4-1.4,7.3,3.9,2.1,11.1.9,14.1,4.3-1,3.2-7.2,4-7.6,7.4,1.7,3,6.1,4.4,11.1,5.1,13,1.9,22.7,6.9,32.6,11.9-5,3.4-6.8,3.7-11.3,1.2-3.5-1.9-6.7-3.9-11.6-4.5-2.6.4-5,.9-7,2.8.2,6,5.9,9.6,15.1,11.1,3.2,3.8-2.7,5-5.4,7.2,2.5,7-1.9,12.1-10.3,16.7-5.1,2.8-11.1,5.8-11,11.1.8,1.2,2.2,2.7,4.3,2.9,8.1.9,12.3,4.3,15.2,8.7,5.2.6,9.9,1.2,13.9,3.3,3.7,2,7.9,3.6,11.6,5.3,4.6,7.7,7.9,9.2,19.6,8.7,3.7-1.4,6.5-5.1,13-2.1-3.8,3.6-.5,7.3-.1,11,.7.4,1.3.8,2,1.2,1.9,1.2,2.7,2.6,3.1,4.3.9,4.9,5.4,6.5,13,5.1,3-1.6,2.1-3.5,1.8-5.6-1.2-8.8-10.7-15.6-14.1-23.9-1.8-4.5-9.8-5.1-16.3-2.2-2.8,1.2-3.8,4.1-9.4,3.5-4.1-5.4-13.8-8-20-12.7,11-1.6,12.3-3.1,6.8-9.4-2.3-2.5-1.9-4.5.8-6.7,8.5-7.1,19-11,34.2-9.1,11,1.3,17.5-2.4,18.4-9.3.8-6.2-3.7-10.6-16.1-9.4-1,0-1.9-.2-3.9-1.1-2.4-1.7-3.1-4.9-6.2-7.3-3-2.4-8-3.6-10.1-6.3,15.3-9.8,15.6-9.8,24.7-4.6-2.9.9-5.9-.2-8.8.3-6.2,1.2-9.9,6.3-5.1,8.7,6.2,3.1,12.6,6.5,21.1,7.3,6.4.6,9.8-3,14.4-4.3,1.9.5,2.1,1.4,2.6,2.1,4.7,6.4,9.8,7.4,19.3,3.7,10.3-4.1,15.8-10.5,19.4-17.3,2.8-5.4-4-9.2-13-7.9l-.5.4h0Z" fill="#f5dcb5" isolation="isolate" mix-blend-mode="multiply" opacity=".5"/>
          <path d="M262.8,482.6c.6-2,2.5-2.5,8.1-4,.5,0,.9.2,1.3.3,2-5.6,4.1-10.9,6.3-16.2-.7-.2-1.4-.3-2.2-.6-6.1-1.4-.5-7.1-5.8-10.9-8.8-.3-20,.6-23.8-7.3-.8-2.1,5-5.4-3.4-6.5-2.4,1.2-4.9,2.5-7.1,3.6-3.8.4-7.2.5-10.3,0-5.8-2.7-3.3-6.8-4.6-9.7-2.3-2.4-5.4-3.2-8.1-4.4-4.9-2.2-9.3-5-9.3-8.9s-.9-7.7-2.5-11.7c6.8-3.6,14.1-1.8,21.1-1,4.2-1.4,9.2-2.2,10-5.9-6.3-3.6-13.2-1.9-20.3-.9-1.1-.3-2.4-.7-3.8-1-8.4-1.8-16.5-4-25.8-1.7-2.9.7-6.7.1-10,.2-5.4.2-9.4-1-11.2-4.2,2.3-5.6,12.7-4.3,17.1-8,.4-1.3.9-2.6-1.1-3.8-4.9-1.1-8,1.9-13.3,2.2-4.6-1.8-10.7-1-16.6-1.5-6.6-.5-8.7-4.7-13.4-6.5-4.4-1.3-5.9,3.1-10.8,1.7-1-5.4,3.6-9.8,8.3-14.3-6.8-8.2-2.8-17.5-7.5-26.6,8.9-2.2,4.5-9.3,12.9-12.1,6.6,2,13.2,3.5,19.9,3.1,14.1,7,26.3,7.1,36.9.6,3.4-8.1,2-16.8,10-24.5-2.8-.9-5-1.7-7.3-2.3-11.1-2.9-14-8.4-6.8-14.1,5-4,9.7-8.1,15.6-11.3.6-2.6,1.2-4.8-.5-7-5.6-1.6-11.8,0-17.6-1.4-5.5-1.3-12-1.1-12.6-6,3.5-3.6,10.4-2.1,14.9-3.7-.1-3.1-5.4-7-15.8-11.8-8.5,1.6-18.4.7-27.5,3.2-6.4,1.8-13.6.6-17.6-3.1-3.1-2.8-5.4-5.8-7.8-8.5,1.8-2.1,4.2-2.3,7-2.5,5.8-.2,11,1.1,16.1,2.4,12.8,3.4,23.8,1.2,33.9-3.9,2.3-1.2,4.3-2.5,6.5-3.7,8.3-1.1,15.4,1.6,23,2.3,6.8-1.2,13.5-2.4,16.2-7-5.5-6.2-15-2.8-23.3-4.3-1.8-.7-4.2-1.7-5.3-3.6,3.1-8.8,2.1-10.2-9.5-13.6-7.5,1.9-15.9,3.7-17.3,9.4-1.4,5.8-7.5,8-14.6,9.5-5.7-.5-8.9-3-12.8-3.9-6.9-.5-14.6,1.2-17.4-4.5,2.9-1.5,5.8-3.2,9.8-2,2.8.8,5,.4,7.3-.4,5.8-2,11.9-3.8,17.4-6.1,4.2-1.8,8.4-3.8,10.2-7.6-3.6-3.1-8.3-4.7-15-4-3.1,1.7-6.1,3.4-9.2,5.2-5.5-.4-12.4,1.7-14.3-3.9,7-6.6,17.8-11.7,19.6-20.1-1.1-1.1-2.3-1.8-4.9-1.7-4.3,1.8-7.9,4.4-12.7,6.3-4.9,1.9-8.2,1.5-13.1-.1-6-1.9-8.2-5.8-13.4-7.9-.4.1-.7.3-1,.4v2.6c1.5,1.9,1.9,4.1.2,5.8,0,0,0,.2-.2.2v20.3c3.1,13.6,4,27.8,3.6,42.4,2.4.6,4.8,1.3,7.1,2.1,5.7,1.9,9.3,4.5,10.4,8.4.8,2.8,2.1,5.3,5.5,6.8,9.7,2.1,16-5.7,26.1-2.7-.2,8.3-7.3,14.4-15.5,20-4,2.7-9,6.4-17.3,4.7-1.1-2.7-1.9-5.4-3.2-8-1.3-2.6,4.3-4.9-.5-8.5-1.6,5.9-9.6,7.5-15,10.6-.4,3.6-.8,7.3-1.2,10.9v96.3c7.9,3.3,16.3,5.7,25.8,6.8,5.3.6,9.5,2.4,13.2,4.8,1.5.5,3,.6,4.7.4,9.2,1,14.4,4.2,15.6,9.8-3.8,4-13.8,3.4-15.5,8.9,3.4,6.7,14.8,4.3,20.2,6.1,6,3.5,10.6,6.1,15,8.6.8,2.3,1.2,4.3-.5,6.2-4.4,2.8-11.3,3.6-14.6,7.3,2.4,1.8,4.5,3.3,6.9,5.2-1.3,6,.6,11.5,8.2,16.2,3.4,2.1,3.8,5.4,1.9,8.4-1.9,3.1-2.4,6.2,1.3,9.6,13.8,1.1,27.9-2.5,42.4-.4,2.9,3,1.7,5.7,0,8.2h11.6c6.9-6.4,14.8-8.3,22.5-6.1h.1Z" fill="#f5dcb5" isolation="isolate" mix-blend-mode="multiply" opacity=".5"/>
          <path d="M422.9,318.8c-6.5-4.9-14-4.8-19.1.2-2.2,2.2-3.4,4.8-4.6,7.2-.8,1.6-.2,3.3,2.6,4.1,2.5.8,5.3.8,7.4-.5,1.1-.7,2.3-1.3,3.5-2-.8,5.6,1,11.2,3.9,17.4-1.2,3.3.1,8.5.9,13.2-1.1,1.2-2,2.4-2.7,3.2-.6,7.2.7,15.7-1,21-3.1-1.1-5.8-1.8-7.6.2-1.6,1.7-4-.6-6.8-4.1.4-3.6,1.9-3.8,4.3-2.3,2.8,1.7,4,.4,3.6-3.8-1.4-4.8-4.2-8.7-5.9-13.1-1.9-8.1-2.7-16.2-8.9-25.6-4.7-1-10.7-8.3-15.9-10.5-2,5.3.5,13,3.3,20.2,2.2,5.6,3.1,10,3.5,14.6.2,2.9.6,5.9,1.2,9.1,1.2,6,.3,9.8-.2,14-.3,2.2-1.4,3.1-3.3,2-1.3-.7-2.7-2-3.9-.6-.7,2.6.8,8.3-.4,10.9,2.5,7.5,3.8,14.1,4.9,19.7-1,3.4-3,1.7-5.1-1.2-3.2-4.3-5.7-5.2-8.1-4.9-.9,1.8-1.5,4.1-.9,7.9.4,1,.8,2.1,1.3,3.1,1.4,3.2,3.3,4.8,5,7.1,4.9,6.6,7.3,12.8,7,19.2-.3,5.9-1.5,10.4-5.9,9-3.6-3.6-5.2-9.3-8.1-13.6-2.9-3.2-5.6-5.3-6.6-1.5.4,6.3,4.6,12.4,6.4,18.7,2,6.7,3.8,12.9,2.5,17.6-2.9-3.7-5-8.7-7.9-10.4-2.8-.4-3.6,3.1-5.1,5.6-4-3-8-6.2-11.8-7.9-2.7-1.2-4.3-.9-4.1,3.2.1,2.1-.8,3.5.7,7.4,2.6,4.5,6,9,8.2,14.5.9.5,1.9,1.1,2.8,1.5h35.5c5.4-2.6,10.2-6.2,14.1-10.4,3.9-5,5.9-19.8,7.9-29.8,3.9,12.4,5.9,34.7,9.8,34.7,7.2,2,14.5,3.8,21.9,5.4h105.3c8.3-8.1,15.8-19.7,24.7-28.7v-37.8c-13.1-40.4-7.8-82.7-2.5-124.9.5-7.8,1.4-15.7,2.5-23.5v-90.5s-18.5-1-34.5,12.1c.5.9,1,1.8,1.5,2.5,2.8,3.3,4.3,1.9,7.2,6,2.3,6,7.1,10.3,10.4,16.6,1,6.5-2.3,4.7-4.1,5.2-1.5,4.5,3,11.7,3.1,16.7-.2,1.7-1,2.6-2.1,2.4-4-.7-6.2,2.7-9,4.6-1.6,1.1-3.1,2.3-4.7,3.2-.4.3-1.2-.8-1.8-1.9-1-4.5,3.1-.4,2.3-5.3-2.1-5.8-4.6-12.7-7.1-19.3-6.5-6.2-10.4-7.5-11-2.6-.5,4.4-1.6,8.3,1.3,15.9,1.6,4.1,1.9,8.5,2.5,12.6.4,2.5,0,4.2-2.3,2.7-4.1-6.4-7.1-14.1-8.6-20.9-1.2-5.3-3-10.2-5.1-15.1-3.4,1.1-7.3,2.7-12.5,6.7-4.2,3.3-8.1,6.9-11.8,10.1,4.8,5.9,5.2,6.1,9.3,5.5,2.2-.3,4.2,1.2,6.8,4.8.8,7.8,1.6,15.4,2.4,23.5,11.2,17.7,11.2,31.2,11.1,44.9-2.7-2.7-5-6.4-7.1-11.2.8-2.8,2.3-4.9.7-11.3-5.5-7.7-9-2-14-8.3-1.6.5-2.9,1.1-3.4,3.5.5,4.4,2.2,9.6,3.6,14.4,11.3,16.3,12.9,19.6,15.6,30.4-.6,1.7-1.5,2.8-3.1,2.3-9.5-9.4-14.3-21-15.3-33.7-4.5-8-8.4-12.4-13-13.6-4.4-1.1-11.4-10.9-14.9-20.1-4.8-12.4-8.7-16.9-15.1-18-3,4,1.9,11.8,3.5,17.7-.5,3.6-1.7,4.9-5.6,1.1-4.6-12.3-11.9-18.3-20.3-28.4,4,9.6,3.8,14.8,3.9,20.3-3.2,2.1-5.5,5.3-3.3,14.1,2.9,6.8,6.7,12.8,9.2,19.6-.3,5.4-.7,10.6-1,15.9-7.4-7.9-13.6-11.6-18.1-8.6,1.6,7.8,8.4,12.6,7.9,19.4-1.2,2.6-3.2,3.3-5.3,3.8,1.5-1.3,2.7-2.8,3.4-4.6h0Z" fill="#f5dcb5" isolation="isolate" mix-blend-mode="multiply" opacity=".5"/>
          <path d="M568.6,297.3c.5-7.8,1.4-15.7,2.5-23.5-10.6,8.2-15.8,32.9-17.6,47.9-1.7,15-6.6,41.6,4.3,51,2.5,2.1.6,55.4.6,55.4l12.7,6.6v-12.6c-13.1-40.4-7.8-82.7-2.5-124.9h0Z" fill="#ca8344" isolation="isolate" mix-blend-mode="multiply" opacity=".5"/>
          <path d="M126.1,89.8c1.2,0,2.3-.2,3.5-.5,5.4-4.8,13.1-8.1,21.3-10.5,8.3-2.4,11.7,11.6,12.8,5.9-4.1,2.1-5.4-13.5-5.8-13.1-9.9,9-25,7.6-31.8,18.2Z" fill="#f5dcb5" isolation="isolate" mix-blend-mode="multiply" opacity=".5"/>
        </g>
        <path d="M514.9,139.6s-20.6-15.3-26.8-15.6c-6.2-.3-96.1-12.3-108.5-7.4s-33,34.1-33,34.1c0,0-24-23.9-33.3-27.8s-50.8-5.3-55-1.8c-4.2,3.5-21.2-19.2-31.6-22.2-10.5-3-44.4,11.9-47.9,20.1-7,16.4-16.8,63.7-18.5,75.9-1.4,9.8-12.2,54.7-12.7,67.7,1.3,5.8,12.7,152.8,13,161.7.1,2.9,76.8,35.3,79.1,35.8,3.6.7,23.7-11.1,27.5-19.3,5-10.8,24.8-49.4,26.4-50.2,1.5-.8,10.8,60.6,18.5,65.3,7.7,4.8,42.3,6,45.4,11.3s46.7-51.6,50.3-50.9c3.6.7,14.9,27.7,20.1,36.5,5.1,8.8,17.3,11.6,27.7,14.9,10.4,3.3,26.3-17.5,26.3-17.5l6.7-51.3s23.7-7.2,26.3-24.4c2.6-17.2,0-234.9,0-234.9h0Z" fill="url(#linear-gradient2)" isolation="isolate" mix-blend-mode="color-dodge" opacity=".1"/>
        <path d="M162.1,408.1c.6-33.4,1.8-67.2-1.1-100.5-1.4-15.7-3.9-31.3-4-47.3,0-14.9,4.8-27.9,7.6-41.6,1.5-7.5,2.5-15.3,3.8-22.9,1.4-8.2,2.9-16.4,4.6-24.5,1.7-8.2,3.5-16.2,5.3-24.3,1.1-4.7,1.9-9.7,3.3-14.3,3.2-10.7,10.9-10.3,17-12.7,4.9-2,9.7-4.5,14.5-6.9,3.7-1.9,7.9-4.8,11.9-4.7,3.3,0,6.5,3.5,9.4,5.8,3.9,3.1,5.1,6.3,9,9.6,3.7,3.1,4,41.5,6,43.7,4.3,1.7,1.1-35.8,5.4-36.3,9-1.1,33.3-2.3,42.3-2.7,4.4-.2,8.8,0,13.1,1.5,4.4,1.4,8.5,4.4,12.4,8s7.5,7.8,11.2,11.8c3,3.2,5.9,6.9,8.9,10,2.9,2.9,5.6,3.9,9,2.6,3.6-1.4,7-4.3,10.2-7.5,6.7-6.6,12.9-14.3,19.5-20.9,3.8-3.8,7.9-7.5,12.3-8.8,4.3-1.3,8.7-.3,13,.9,9.6,2.9,19.2,4.9,28.9,6.2,10.4,1.4,16.8-6.1,27.2-4.3,9.7,1.7,20.5-1.6,29.7,4.3,6.7,4.3,22.2,7.2,22.2,7.2,0,0-20.6-15.3-26.8-15.6-6.2-.3-96.1-12.3-108.5-7.4s-33,34.1-33,34.1c0,0-24-23.9-33.3-27.8s-50.8-5.3-55-1.8c-4.2,3.5-21.2-19.2-31.6-22.2-10.5-3-44.4,11.9-47.9,20.1-7,16.4-16.8,63.7-18.5,75.9-1.4,9.8-12.2,54.7-12.7,67.7,1.3,5.8,12.7,152.8,13,161.7,0,.2.5.6,1.4,1.2,0-5.8.1-11.7.2-17.5v.2h0Z" fill="#ffd290" isolation="isolate" mix-blend-mode="color-dodge" opacity=".1"/>
        <path d="M269.9,485.8c-3.9-2-10.1,7.7-11-22,0-.7,5.3-54.5,5.3-54.5,0,0-9.9,54.7-10.1,59.2-.2,4.6,1.1,16.3,1.1,16.3l14.7.9h0Z" fill="#e99f67"/>
        <path d="M264,89.4l-17.1,35.7s2.9,44.8,2.5,43.5-9.8-43.2-9.6-46.6c.2-3.3,17.8-42.9,17.8-42.9l6.4,10.3h0Z" fill="#e99f67"/>
        <g>
          <path d="M538.5,286c-.4-1.6-1.4-3.2-2.5-3.9-2.2-1.4-3.5,1.6-4,2.6-.6,1.4-.5,15,0,23.7,0,.4.3.8.7.8s.6-.4.6-.8v-1c.2,0,.4,0,.5-.2,4.3-4.2,4.4-4.8,4.5-5,0-.3.3-.9-1.8-9.4.3-.7,1.6-3.2,2-4.2.3-.7.3-1.6,0-2.6ZM537.2,287.5c-.5,1.3-2.1,4.4-2.1,4.4,0,.3-.2.6,0,.9,1,3.7,1.9,7.7,2,8.7-.4.6-2.2,2.4-3.8,4.1-.4-7.2,0-18.3,0-19.7,1-2.1,1.6-2.1,2.1-1.8.7.4,1.4,1.5,1.7,2.5v.9h0Z" fill="#d68a56"/>
          <path d="M119.4,447.3c-.3,0-.5.2-.6.6v1s1.9,3.3,1.7,6.4c-.3,3.4-1.7,6.9-1.7,6.9v1.8c0,.3,0,.5.2.7,0,.2.3.3.4.3l21,.7c.2,0,.4-.2.5-.4.1-.3.1-.6,0-.9l-.4-1.4c0-.1,0-.2-.1-.3,0,0-1.2-1.9-1.2-5.3s2-7.3,2-7.3c.1-.3.2-.7,0-1-.1-.3-.3-.5-.6-.5l-21.3-1.1v-.2h.1ZM137,457c0,3.7,2.1,6.1,2.4,6.7l-19.4-.7c.3-1,1.5-4.2,1.8-7.6.2-2.5-.6-4.9-1.2-6.3l18.9,1.1c-.7,1.6-2.5,4-2.5,6.7h0Z" fill="#d68a56"/>
          <path d="M125.8,458h8c.4,0,.6-.5.6-1s-.3-.9-.6-.9h-8c-.4,0-.6.5-.6,1s.3.9.6.9Z" fill="#d68a56"/>
          <g>
            <path d="M538.9,156.1c-1.1-.8-2.3-1.6-3.6-2.1-.7-.2-1.4-.4-2.1-.3-3.6.2-8.1,4.8-8.2,5,0,.2-.2.5-.2.8s0,.5.2.7c1.1,1.2,5.1,3.1,7.8,3.2v6.4c0,.5.2.9.5.9s.5-.4.5-.9v-5.6.2s1.3,1.5,3.3,4.1c1,1.2,1.8,1.8,2.5,1.8s.4,0,.6-.2c.6-.4,1-1.5,1.2-3,.3-2.1-.4-3.4-1.1-3.8-.8-.4-1.5.3-1.7,1.7,0,.5,0,1,.3,1.2s.6-.1.7-.6c0-.6.4-.5.5-.4.2.1.5.6.3,1.6,0,1-.3,1.5-.6,1.7-.2.2-.8.2-2.1-1.4-1.5-1.8-2.5-3.1-3-3.7,1.7-.5,3.4-1.8,5.1-4.3.6.3,1.1.5,1.5.6.3,0,.5-.3.6-.8,0-.5-.2-1-.5-1-.7-.1-1.6-.8-2.7-1.5l.2-.3h0ZM526.3,159.2c.7-1,3.8-2.5,5.5-3.3,0,.7,0,1.8.4,2.6.2.5.7,1,1.4,1h.2c.7-.1,1.3-.6,1.6-1.5.2-.6.3-1.3.3-1.8,1,.5,1.9,1.1,2.7,1.7,0,0,.2.1.3.2-4.4,6-10.9,2.6-12.6,1.1h.2,0Z" fill="#d68a56"/>
            <path d="M525.2,156.6s5.5-5.3,8.1-5.4c1.6,0,3.2,1.3,4.7,2.4,1.2.9,2.2,1.7,3.1,1.8.3,0,.5-.4.6-.9,0-.5-.2-1-.5-1-.7,0-1.7-.9-2.8-1.7-1.5-1.2-3.3-2.5-5-2.6-3,0-8.7,5.5-8.9,5.8s-.3.9,0,1.3c0,.2.3.4.4.3,0,0,.2,0,.3-.2v.2h0Z" fill="#d68a56"/>
          </g>
          <path d="M139.8,194.6c-.1-.2-.3-.4-.5-.4s-.4,0-.6.3l-2.9,3.8-2.2-3.7c-.1-.2-.3-.3-.5-.4-.2,0-.4,0-.6.3l-2.6,3.4-3.2-3.4c-.3-.3-.8-.3-1,.1l-2.2,3.2-2.8-3.3c0-.2-.3-.3-.5-.2-.2,0-.4.1-.5.3l-2.6,4c-.3.4-.2,1,0,1.3.3.3.8.3,1,0l2.2-3.2,2.8,3.3c0,.2.3.3.5.2.2,0,.4-.1.5-.3l2.2-3.3,3.1,3.4c.3.3.7.3,1,0l2.5-3.2,2.2,3.7c.1.2.3.3.5.4.2,0,.4,0,.6-.3l2.8-3.7,1.7,3.5c.1.3.4.4.6.4s.3,0,.4-.1c.3-.3.4-.9.2-1.3l-2.2-4.5v-.3h.1Z" fill="#d68a56"/>
          <path d="M139.8,204.8c-.1-.2-.3-.4-.5-.4s-.4,0-.6.3l-2.9,3.8-2.2-3.7c-.1-.2-.3-.3-.5-.4-.2,0-.4,0-.6.3l-2.6,3.4-3.2-3.4c-.3-.3-.8-.3-1,.1l-2.2,3.2-2.8-3.3c0-.2-.3-.3-.5-.2-.2,0-.4.1-.5.3l-2.6,4c-.3.4-.2,1,0,1.3.3.3.8.3,1,0l2.2-3.2,2.8,3.3c0,.2.3.3.5.2.2,0,.4-.1.5-.3l2.2-3.3,3.1,3.4c.3.3.7.3,1,0l2.5-3.2,2.2,3.7c.1.2.3.3.5.4.2,0,.4,0,.6-.3l2.8-3.7,1.7,3.5c.1.3.4.4.6.4s.3,0,.4-.1c.3-.3.4-.9.2-1.3l-2.2-4.5v-.3h.1Z" fill="#d68a56"/>
          <path d="M545.8,182.2c0-.2-.3-.4-.5-.4s-.4,0-.6.3l-2.9,3.8-2.2-3.7c0-.2-.3-.3-.5-.4-.2,0-.4,0-.6.3l-2.6,3.4-3.2-3.4c-.3-.3-.8-.3-1,.1l-2.2,3.2-2.8-3.3c0-.2-.3-.3-.5-.2-.2,0-.4.1-.5.3l-2.6,4c-.3.4-.2,1,0,1.3.3.3.8.3,1,0l2.2-3.2,2.8,3.3c0,.2.3.3.5.2.2,0,.4-.1.5-.3l2.2-3.3,3.1,3.4c.3.3.7.3,1,0l2.5-3.2,2.2,3.7c0,.2.3.3.5.4.2,0,.4,0,.6-.3l2.8-3.7,1.7,3.5c0,.3.4.4.6.4s.3,0,.4-.1c.3-.3.4-.9.2-1.3l-2.2-4.5v-.3h0Z" fill="#d68a56"/>
          <path d="M545.8,192.3c0-.2-.3-.4-.5-.4s-.4,0-.6.3l-2.9,3.8-2.2-3.7c0-.2-.3-.3-.5-.4-.2,0-.4,0-.6.3l-2.6,3.4-3.2-3.4c-.3-.3-.8-.3-1,.1l-2.2,3.2-2.8-3.3c0-.2-.3-.3-.5-.2-.2,0-.4.1-.5.3l-2.6,4c-.3.4-.2,1,0,1.3.3.3.8.3,1,0l2.2-3.2,2.8,3.3c0,.2.3.3.5.2.2,0,.4-.1.5-.3l2.2-3.3,3.1,3.4c.3.3.7.3,1,0l2.5-3.2,2.2,3.7c0,.2.3.3.5.4.2,0,.4,0,.6-.3l2.8-3.7,1.7,3.5c0,.3.4.4.6.4s.3,0,.4-.1c.3-.3.4-.9.2-1.3l-2.2-4.5v-.3h0Z" fill="#d68a56"/>
          <path d="M140.9,253.1c-.1-.2-.3-.4-.5-.4s-.4,0-.6.3l-2.9,3.8-2.2-3.7c-.1-.2-.3-.3-.5-.4-.2,0-.4,0-.6.3l-2.6,3.4-3.2-3.4c-.3-.3-.8-.3-1,.1l-2.2,3.2-2.8-3.3c0-.2-.3-.3-.5-.2-.2,0-.4.1-.5.3l-2.6,4c-.3.4-.2,1,0,1.3.3.3.8.3,1,0l2.2-3.2,2.8,3.3c0,.2.3.3.5.2.2,0,.4-.1.5-.3l2.2-3.3,3.1,3.4c.3.3.7.3,1,0l2.5-3.2,2.2,3.7c.1.2.3.3.5.4.2,0,.4,0,.6-.3l2.8-3.7,1.7,3.5c.1.3.4.4.6.4s.3,0,.4-.1c.3-.3.4-.9.2-1.3l-2.2-4.5v-.3h.1Z" fill="#d68a56"/>
          <path d="M140.9,263.2c-.1-.2-.3-.4-.5-.4s-.4,0-.6.3l-2.9,3.8-2.2-3.7c-.1-.2-.3-.3-.5-.4-.2,0-.4,0-.6.3l-2.6,3.4-3.2-3.4c-.3-.3-.8-.3-1,.1l-2.2,3.2-2.8-3.3c0-.2-.3-.3-.5-.2-.2,0-.4.1-.5.3l-2.6,4c-.3.4-.2,1,0,1.3.3.3.8.3,1,0l2.2-3.2,2.8,3.3c0,.2.3.3.5.2.2,0,.4-.1.5-.3l2.2-3.3,3.1,3.4c.3.3.7.3,1,0l2.5-3.2,2.2,3.7c.1.2.3.3.5.4.2,0,.4,0,.6-.3l2.8-3.7,1.7,3.5c.1.3.4.4.6.4s.3,0,.4-.1c.3-.3.4-.9.2-1.3l-2.2-4.5v-.3h.1Z" fill="#d68a56"/>
          <path d="M138.1,171.6h-2.1c-.7-1.2-3.1-4.4-7.2-4-4.1.4-7.6,3.1-8.3,4.3h-1c-.4,0-.7.4-.7,1s.3.9.7.9h1.1c.2.8,2.4,4.4,6.9,4.3.5,0,1,0,1.6-.1,4.9-.7,6.4-3.2,6.9-4.5h2c.4,0,.7-.4.7-.9s-.3-1-.6-1h0ZM131.7,175.4l-1.4-1.9h.7c.3,0,.7-.4.7-.9s-.3-1-.6-1c-.7,0-4.1-.2-4.9,0-.4.1-.6.6-.5,1.1,0,.4.3.7.6.7h.6l-1.6,2.1c0,.1,0,.2-.2.4-1.9-.7-3.4-2.8-3.4-2.8v-.3c.8-1.2,3.9-2.9,7.1-3.2,3.4-.3,5.4,2.1,6,3.2-.3.6-1.1,1.8-3.1,2.7h.1,0Z" fill="#d68a56"/>
          <path d="M138.1,152.6h-2.1c-.7-1.2-3.1-4.4-7.2-4-4.1.4-7.6,3.1-8.3,4.3h-1c-.4,0-.7.4-.7,1s.3.9.7.9h1.1c.2.8,2.4,4.4,6.9,4.3.5,0,1,0,1.6-.1,4.9-.7,6.4-3.2,6.9-4.5h2c.4,0,.7-.4.7-.9s-.3-1-.6-1h0ZM131.7,156.4l-1.4-1.9h.7c.3,0,.7-.4.7-.9s-.3-1-.6-1c-.7,0-4.1-.2-4.9,0-.4.1-.6.6-.5,1.1,0,.4.3.7.6.7h.6l-1.6,2.1c0,.1,0,.2-.2.4-1.9-.7-3.4-2.8-3.4-2.8v-.3c.8-1.2,3.9-2.9,7.1-3.2,3.4-.3,5.4,2.1,6,3.2-.3.6-1.1,1.8-3.1,2.7h.1,0Z" fill="#d68a56"/>
          <path d="M138.3,135.3h-2.1c-.7-1.2-3.1-4.4-7.2-4-4.1.4-7.6,3.1-8.3,4.3h-1c-.4,0-.7.4-.7,1s.3.9.7.9h1.1c.2.8,2.4,4.4,6.9,4.3.5,0,1,0,1.6-.1,4.9-.7,6.4-3.2,6.9-4.5h2c.4,0,.7-.4.7-.9s-.3-1-.6-1h0ZM131.9,139.1l-1.4-1.9h.7c.3,0,.7-.4.7-.9s-.3-1-.6-1c-.7,0-4.1-.2-4.9,0-.4.1-.6.6-.5,1.1,0,.4.3.7.6.7h.6l-1.6,2.1c0,.1,0,.2-.2.4-1.9-.7-3.4-2.8-3.4-2.8v-.3c.8-1.2,3.9-2.9,7.1-3.2,3.4-.3,5.4,2.1,6,3.2-.3.6-1.1,1.8-3.1,2.7h.1,0Z" fill="#d68a56"/>
          <path d="M136,223.9c.4-.3.5-.9.2-1.3-.3-.4-.8-.5-1.2-.2l-3.7,3.1c-1.8.2-6,.4-7.5,0s-3.8-2.3-4.5-3c-.4-.3-.9-.3-1.2.1-.3.4-.2,1,0,1.3,0,.1,2.8,2.6,4.9,3.3l-4.6,11.2c-.2.4,0,.9.3,1.1l1.7,1.5c.3.2.6.2.9,0,.9-.6,2.1-1.3,2.5-1.4.7.1,5.7,1.2,6.6,1.5h.5c.5,0,1-.2,1.6-.6,1.1-.7,2.4-2.1,2.7-3.5.5-2.2-1.8-5.5-2.7-6.3-.3-.3-.6-2.1-.6-3.8l3.9-3.2v.2h.2Z" fill="#d68a56"/>
          <g>
            <path d="M542.8,132.9c.2-.4,0-.9,0-1.2-1-1.2-3.7-4.8-4.2-6.5s-3.6-7.4-5.7-9.4c.4-.6.6-1.1.7-1.5,0-1-.3-2.3-.5-2.9v-1.5c0-.4-.2-.7-.4-.9-.3,0-.5,0-.7.3l-.6,1.1h-2.1l-.5-1c-.2-.3-.5-.5-.7-.3-.3,0-.4.5-.4.9v1.6c-.3.9-.9,2.8-.4,3.9.2.4.7,1,1.3,1.6v3.2c0,.3,0,.7.2.9.2,1.6.5,3.3,1.2,4.3.2.3.5.6.9.9.5,4.2.7,5.4.9,5.8l-.5,2.3h-2c-.4,0-.6.4-.6.9s.3.9.6.9h6.3c.2,0,.4-.2.5-.4s.2-.5,0-.8l-.3-3.1c0-.3,0-.5-.3-.6,0,0,.9-1.5,1.5-1.1l2.2,5.7c0,.3.3.5.6.5,0,0,2.2-.4,2.7-.5.3,0,.5-.3.6-.7,0-.3.2-.7-.5-2.2,0,0,.3-.2.3-.4v.2h0Z" fill="#d68a56"/>
            <path d="M546.6,119.7c-.8,0-1.5,1-1.5,2.2s.7,2.1,1.5,2.1,1.5-1,1.5-2.2-.7-2.1-1.5-2.1Z" fill="#d68a56"/>
            <path d="M546.6,128.1c-.8,0-1.5,1-1.5,2.2s.7,2.1,1.5,2.1,1.5-1,1.5-2.2-.7-2.1-1.5-2.1Z" fill="#d68a56"/>
          </g>
          <g>
            <path d="M541.9,339.5c.2-.4,0-.9,0-1.2-1-1.3-3.7-4.8-4.2-6.5s-3.6-7.4-5.7-9.4c.4-.6.6-1.1.7-1.5,0-1-.3-2.3-.5-2.9v-1.5c0-.4-.2-.7-.4-.9-.3-.1-.5,0-.7.3l-.6,1.1h-2.1l-.5-1c-.2-.3-.5-.5-.7-.3-.3.1-.4.5-.4.9v1.6c-.3.9-.9,2.8-.4,3.9.2.4.7,1,1.3,1.6v3.2c0,.3,0,.7.2.9.2,1.6.5,3.3,1.2,4.3.2.3.5.6.9.9.5,4.2.7,5.4.9,5.8l-.5,2.3h-2c-.4,0-.6.4-.6.9s.3.9.6.9h6.3c.2,0,.4-.2.5-.4,0-.2.2-.5,0-.8l-.3-3.1c0-.3,0-.5-.3-.6,0,0,.9-1.5,1.5-1.1l2.2,5.7c0,.3.3.5.6.5,0,0,2.2-.4,2.7-.5.3,0,.5-.3.6-.7,0-.3.2-.7-.5-2.2,0,0,.3-.2.3-.4v.2h0Z" fill="#d68a56"/>
            <path d="M545.7,326.3c-.8,0-1.5,1-1.5,2.2s.7,2.1,1.5,2.1,1.5-1,1.5-2.2-.7-2.1-1.5-2.1Z" fill="#d68a56"/>
            <path d="M545.7,334.7c-.8,0-1.5,1-1.5,2.2s.7,2.1,1.5,2.1,1.5-1,1.5-2.2-.7-2.1-1.5-2.1Z" fill="#d68a56"/>
          </g>
          <path d="M129.2,353.1c0-.2,0-.4-.1-.6,0-.5-.4-.7-.7-.5,0,0-.1,0-.2.1,0,0-.1.2-.2.2,0,.2-.2.3-.3.5,0-.1,0,.2,0,.2v.2q0,.2-.2.3v.2h0c0-.4-.2-1-.3-1.6-.9-3.7-3.7-7.6-6.5-5.5-.6.4-1,1.1-1.3,1.9s-.4,2.4,0,3c.2.3.4.2.6,0,.2-.3.3-.8.4-1.2,0-.3.3-.6.5-.8.3-.3.6-.4,1.1-.4h.2s.3.1.4.2c0,0,.4.2.6.4.5.4.9,1.1,1.3,1.9.5,1.3.7,2.8.8,4.4-.2-.4-.5-.8-.8-.9-.3-.4-.7-.3-1,0-.2.2-.3.6-.3,1v1.2c0,.4.2.7.3,1.1,0,.2.2.5.3.7.2.4.4.9.7,1.2,0,0,0-.2-.2-.2,0,.1,0,.2.2.3,0,.2.3.4.5.4,0,1.3-.2,2.6-.3,3.9,0-.1,0-.3-.2-.4,0-.3-.3-.5-.4-.8,0-.2-.2-.2-.3-.4,0,.1,0,.2,0,0v-.2c0-.1-.2-.2-.3-.3t0,0c0-.1-.2-.2-.2-.2,0,0-.2-.2-.4-.2-.4-.2-.8,0-.9.4v.8c0-.2,0-.1,0,.2s0,.4.2.6v.4c0,.5.2.6.3.8,0,.3.2.6.3.9.2.6.4,1.1.7,1.7,0,.3.2.6.4.9.2.4.4,1,.8,1.2.2.1.4.2.6.2.2.4.6.4.9,0,.2-.4.3-.8.4-1.2.9-.8,1.5-2.1,1.9-3.3,0-.1,0-.3.1-.4v-.3c0-.2.1-.4.1-.6s0-.2,0,0v-.7c0-.6,0-1.1-.1-1.5v-.2c0-.5-.5-.5-.7-.1,0,.1-.2.2-.3.2,0,.1-.2.2-.3.4-.1.2-.2.3-.2.4v-2.7c.2-.3.4-.6.6-1,.3-.8.5-1.6.7-2.4,0-.4.1-.7.2-1.1,0-.2,0-.3.1-.5v-1.1s0-.4,0-.3,0-.2,0-.2v-.9l.4.3h.1Z" fill="#d68a56"/>
          <path d="M141.8,352.3c0-.2,0-.4-.1-.6,0-.5-.4-.7-.7-.5,0,0-.1,0-.2.1,0,0-.1.2-.2.2-.1.2-.2.3-.3.5,0-.1-.1.2-.1.2v.2c0,.2-.1.2-.2.3v.2h0c-.1-.4-.2-1-.3-1.6-.9-3.7-3.7-7.6-6.5-5.5-.6.4-1,1.1-1.3,1.9s-.4,2.4,0,3c.2.3.4.2.6,0,.2-.3.3-.8.4-1.2.1-.3.3-.6.5-.8.3-.3.6-.4,1.1-.4h.2c.1,0,.3.1.4.2.1,0,.4.2.6.4.5.4.9,1.1,1.3,1.9.5,1.3.7,2.8.8,4.4-.2-.4-.5-.8-.8-.9-.3-.4-.7-.3-1,0-.2.2-.3.6-.3,1v.5c0,.3,0,.5.1.7,0,.4.2.7.3,1.1,0,.2.2.5.3.7.2.4.4.9.7,1.2,0,0-.1-.2-.2-.2,0,.1.1.2.2.3.1.2.3.4.5.4,0,1.3-.2,2.6-.3,3.9,0-.1-.1-.3-.2-.4-.1-.3-.3-.5-.4-.8,0-.2-.2-.2-.3-.4,0,.1.1.2,0,0,0,0,0-.1-.1-.2,0-.1-.2-.2-.3-.3q0,0,0,0c0-.1-.2-.2-.2-.2-.1,0-.2-.2-.4-.2-.4-.2-.8,0-.9.4v.8c0-.2,0-.1,0,.2s.1.4.2.6c0,.3.1.4.1.4.1.5.2.6.3.8.1.3.2.6.3.9.2.6.4,1.1.7,1.7.1.3.2.6.4.9.2.4.4,1,.8,1.2.2.1.4.2.6.2.2.4.6.4.9,0,.2-.4.3-.8.4-1.2.9-.8,1.5-2.1,1.9-3.3,0-.1,0-.3.1-.4v-.3c0-.2.1-.4.1-.6s0-.2,0,0v-.7c0-.6,0-1.1-.1-1.5v-.3c0-.5-.5-.5-.7-.1-.1.1-.2.2-.3.2-.1.1-.2.2-.3.4-.1.2-.2.3-.2.4,0-.6,0-1.1.1-1.7v-1c.2-.3.4-.6.6-1,.3-.8.5-1.6.7-2.4,0-.4.1-.7.2-1.1,0-.2,0-.3.1-.5v-1.1s0-.4,0-.3,0-.2,0-.2v-.9l.4.4h0Z" fill="#d68a56"/>
          <path d="M534.4,216.3v-.6c0-.5-.4-.7-.7-.5h-.2c0,.1,0,.3-.2.3,0,.2-.2.3-.3.5,0-.1,0,.2,0,.2v.2q0,.2-.2.3v.2h0c0-.4-.2-1-.3-1.6-.9-3.7-3.7-7.6-6.5-5.5-.6.4-1,1.1-1.3,1.9-.3.8-.4,2.4,0,3s.4.2.6,0c.2-.3.3-.8.4-1.2,0-.3.3-.6.5-.8.3-.3.6-.4,1.1-.4h.2s.3.1.4.2c0,0,.4.2.6.4.5.4.9,1.1,1.3,1.9.5,1.3.7,2.8.8,4.4-.2-.4-.5-.8-.8-.9-.3-.4-.7-.3-1,0-.2.2-.3.6-.3,1v1.2c0,.4.2.7.3,1.1,0,.2.2.5.3.7.2.4.4.9.7,1.2,0,0,0-.2-.2-.2,0,.1,0,.2.2.3,0,.2.3.4.5.4,0,1.3-.2,2.6-.3,3.9,0-.1,0-.3-.2-.4,0-.3-.3-.5-.4-.8,0-.2-.2-.2-.3-.4,0,.1,0,.2,0,0v-.2c0-.1-.2-.2-.3-.3h0c0-.1-.2-.2-.2-.2,0,0-.2-.2-.4-.2-.4-.2-.8,0-.9.4v.8c0-.2,0-.1,0,.2s0,.4.2.6v.4c0,.5.2.6.3.8,0,.3.2.6.3.9.2.6.4,1.1.7,1.7,0,.3.2.6.4.9.2.4.4,1,.8,1.2.2.1.4.2.6.2.2.4.6.4.9,0,.2-.4.3-.8.4-1.2.9-.8,1.5-2.1,1.9-3.3v-1.3q0-.2,0,0v-2.5c0-.5-.5-.5-.7-.1,0,.1-.2.2-.3.2,0,.1-.2.2-.3.4-.1.2-.2.3-.2.4v-2.7c.2-.3.4-.6.6-1,.3-.8.5-1.6.7-2.4,0-.4,0-.7.2-1.1v-1.6s0-.4,0-.3,0-.2,0-.2v-.9l.4.4h.2Z" fill="#d68a56"/>
          <path d="M547,215.4v-.6c0-.5-.4-.7-.7-.5,0,0-.2,0-.2.1,0,0,0,.2-.2.2,0,.2-.2.3-.3.5,0-.1,0,.2,0,.2v.2q0,.2-.2.3v.2h0c0-.4-.2-1-.3-1.6-.9-3.7-3.7-7.6-6.5-5.5-.6.4-1,1.1-1.3,1.9-.3.8-.4,2.4,0,3s.4.2.6,0c.2-.3.3-.8.4-1.2,0-.3.3-.6.5-.8.3-.3.6-.4,1.1-.4h.2s.3.1.4.2c0,0,.4.2.6.4.5.4.9,1.1,1.3,1.9.5,1.3.7,2.8.8,4.4-.2-.4-.5-.8-.8-.9-.3-.4-.7-.3-1,0-.2.2-.3.6-.3,1v1.2c0,.4.2.7.3,1.1,0,.2.2.5.3.7.2.4.4.9.7,1.2,0,0,0-.2-.2-.2,0,.1,0,.2.2.3,0,.2.3.4.5.4,0,1.3-.2,2.6-.3,3.9,0-.1,0-.3-.2-.4,0-.3-.3-.5-.4-.8,0-.2-.2-.2-.3-.4,0,.1,0,.2,0,0v-.2c0-.1-.2-.2-.3-.3h0c0-.1-.2-.2-.2-.2,0,0-.2-.2-.4-.2-.4-.2-.8,0-.9.4v.8c0-.2,0-.1,0,.2s0,.4.2.6v.4c0,.5.2.6.3.8,0,.3.2.6.3.9.2.6.4,1.1.7,1.7,0,.3.2.6.4.9.2.4.4,1,.8,1.2.2.1.4.2.6.2.2.4.6.4.9,0,.2-.4.3-.8.4-1.2.9-.8,1.5-2.1,1.9-3.3v-1.3q0-.2,0,0v-2.5c0-.5-.5-.5-.7-.1,0,.1-.2.2-.3.2,0,.1-.2.2-.3.4-.1.2-.2.3-.2.4v-2.7c.2-.3.4-.6.6-1,.3-.8.5-1.6.7-2.4,0-.4,0-.7.2-1.1v-1.6s0-.4,0-.3,0-.2,0-.2v-.9l.4.4h.2Z" fill="#d68a56"/>
          <g>
            <path d="M128.4,286.4c0-.2,0-.4-.1-.6,0-.5-.4-.7-.7-.5,0,0-.2,0-.2.1,0,0,0,.2-.2.2,0,.2-.2.3-.3.5,0-.1,0,.2,0,.2v.2q0,.2-.2.3v.2h0c0-.4-.2-1-.3-1.6-.9-3.7-3.7-7.6-6.5-5.5-.6.4-1,1.1-1.3,1.9s-.4,2.4,0,3c.2.3.4.2.6,0,.2-.3.3-.8.4-1.2,0-.3.3-.6.5-.8.3-.3.6-.4,1.1-.4h.2s.3.1.4.2c0,0,.4.2.6.4.5.4.9,1.1,1.3,1.9.5,1.3.7,2.8.8,4.4-.2-.4-.5-.8-.8-.9-.3-.4-.7-.3-1,0-.2.2-.3.6-.3,1v1.2c0,.4.2.7.3,1.1,0,.2.2.5.3.7.2.4.4.9.7,1.2,0,0,0-.2-.2-.2,0,.1,0,.2.2.3,0,.2.3.4.5.4,0,1.3-.2,2.6-.3,3.9,0-.1,0-.3-.2-.4,0-.3-.3-.5-.4-.8,0-.2-.2-.2-.3-.4,0,.1,0,.2,0,0v-.2c0-.1-.2-.2-.3-.3h0c0-.1-.2-.2-.2-.2,0,0-.2-.2-.4-.2-.4-.2-.8,0-.9.4v.8c0-.2,0-.1,0,.2s0,.4.2.6v.4c0,.5.2.6.3.8,0,.3.2.6.3.9.2.6.4,1.1.7,1.7,0,.3.2.6.4.9.2.4.4,1,.8,1.2.2.1.4.2.6.2.2.4.6.4.9,0,.2-.4.3-.8.4-1.2.9-.8,1.5-2.1,1.9-3.3v-1.3q0-.2,0,0v-2.5c0-.5-.5-.5-.7-.1,0,.1-.2.2-.3.2,0,.1-.2.2-.3.4-.1.2-.2.3-.2.4v-2.7c.2-.3.4-.6.6-1,.3-.8.5-1.6.7-2.4,0-.4,0-.7.2-1.1v-1.6s0-.4,0-.3,0-.2,0-.2v-.9l.4.4h.3Z" fill="#d68a56"/>
            <path d="M141,285.6c0-.2,0-.4-.1-.6,0-.5-.4-.7-.7-.5,0,0-.1,0-.2.1,0,0-.1.2-.2.2-.1.2-.2.3-.3.5,0-.1-.1.2-.1.2v.2c0,.2-.1.2-.2.3v.2h0c-.1-.4-.2-1-.3-1.6-.9-3.7-3.7-7.6-6.5-5.5-.6.4-1,1.1-1.3,1.9s-.4,2.4,0,3c.2.3.4.2.6,0,.2-.3.3-.8.4-1.2.1-.3.3-.6.5-.8.3-.3.6-.4,1.1-.4h.2c.1,0,.3.1.4.2.1,0,.4.2.6.4.5.4.9,1.1,1.3,1.9.5,1.3.7,2.8.8,4.4-.2-.4-.5-.8-.8-.9-.3-.4-.7-.3-1,0-.2.2-.3.6-.3,1v.5c0,.3,0,.5.1.7,0,.4.2.7.3,1.1,0,.2.2.5.3.7.2.4.4.9.7,1.2,0,0-.1-.2-.2-.2,0,.1.1.2.2.3.1.2.3.4.5.4,0,1.3-.2,2.6-.3,3.9,0-.1-.1-.3-.2-.4-.1-.3-.3-.5-.4-.8,0-.2-.2-.2-.3-.4,0,.1.1.2,0,0,0,0,0-.1-.1-.2,0-.1-.2-.2-.3-.3q0,0,0,0c0-.1-.2-.2-.2-.2-.1,0-.2-.2-.4-.2-.4-.2-.8,0-.9.4v.8c0-.2,0-.1,0,.2s.1.4.2.6c0,.3.1.4.1.4.1.5.2.6.3.8.1.3.2.6.3.9.2.6.4,1.1.7,1.7.1.3.2.6.4.9.2.4.4,1,.8,1.2.2.1.4.2.6.2.2.4.6.4.9,0,.2-.4.3-.8.4-1.2.9-.8,1.5-2.1,1.9-3.3,0-.1,0-.3.1-.4v-.3c0-.2.1-.4.1-.6s0-.2,0,0v-.7c0-.6,0-1.1-.1-1.5v-.2c0-.5-.5-.5-.7-.1-.1.1-.2.2-.3.2-.1.1-.2.2-.3.4-.1.2-.2.3-.2.4,0-.6,0-1.1.1-1.7v-1c.2-.3.4-.6.6-1,.3-.8.5-1.6.7-2.4,0-.4.1-.7.2-1.1,0-.2,0-.3.1-.5v-1.1s0-.4,0-.3,0-.2,0-.2v-.9l.4.3h0Z" fill="#d68a56"/>
          </g>
          <path d="M529.2,374.5c.4,0,.7-.4.6-1l-.9-14.1,12.6,1v10.9l-4,1.1-.5-6.2c0-.5-.4-1-.7-.9-.4,0-.6.5-.6,1l.6,7.2c0,.3,0,.5.3.7,0,.1.3.2.4.2s5.3-1.5,5.3-1.5c.3,0,.5-.4.5-.9v-12.6c0-.6-.3-1-.6-1.1l-14.2-1.3c-.4,0-.7.4-.7,1.1l1.1,15.3c0,.5.4,1,.8.9v.2h0Z" fill="#d68a56"/>
          <path d="M534.5,408.1c2.7,0,7.1-2.1,7.2-7.9,0-4.3-1.7-6.4-3.1-7.2l.6-1.8v-.9c0-.3-.3-.4-.5-.4h-7.3c-.2,0-.4.2-.5.4,0,.2-.2.5,0,.8l.3,2.3c-.8,1-2.6,3.8-2.7,7,0,1.5.5,3.1,1.5,4.5,1.3,2,3.3,3.4,4.7,3.3h-.2Z" fill="#d68a56"/>
          <path d="M529.3,441.8c.4,0,.7-.4.6-1l-.9-14.1,12.6,1v10.9l-4,1.1-.5-6.2c0-.5-.4-1-.7-.9-.4,0-.6.5-.6,1l.6,7.2c0,.3,0,.5.3.7,0,.1.3.2.4.2s5.3-1.5,5.3-1.5c.3,0,.5-.4.5-.9v-12.6c0-.6-.3-1-.6-1.1l-14.2-1.3c-.4,0-.7.4-.7,1.1l1.1,15.3c0,.5.4,1,.8.9v.2h0Z" fill="#d68a56"/>
          <path d="M137.9,431.4c-.8-2-2.5-3.5-4-4.1-1.6-.7-3.2-.8-4.9-.5-1.6.3-3.2,1-4.8,1.9-1.4.8-2.9,1.8-3.9,3.5-.2.4,0,.8.3.8,1.3-.3,2.7-1.3,3.9-2,1.2-.7,2.4-1.2,3.7-1.5,0,0-.2.1-.2.2,0,.3-.3.5-.3.8v2.7c0,1.3.2,2.8.8,3.9.7,1.2,2,.8,2.5-.6.4-1.1.4-2.4.3-3.7,0-.6,0-1.2-.1-1.8,0-.5,0-1-.2-1.5,0-.2,0-.3-.2-.5.7,0,1.5.2,2.2.5s1.4.7,2,1.3c.7.6,1.2,1.5,1.8,2.1s1.3-.6,1-1.5h0Z" fill="#d68a56"/>
          <path d="M137.9,414.1c-.8-2-2.5-3.5-4-4.1-1.6-.7-3.2-.8-4.9-.5-1.6.3-3.2,1-4.8,1.9-1.4.8-2.9,1.8-3.9,3.5-.2.4,0,.8.3.8,1.3-.3,2.7-1.3,3.9-2,1.2-.7,2.4-1.2,3.7-1.5,0,0-.2.1-.2.2,0,.3-.3.5-.3.8v2.7c0,1.3.2,2.8.8,3.9.7,1.2,2,.8,2.5-.6.4-1.1.4-2.4.3-3.7,0-.6,0-1.2-.1-1.8,0-.5,0-1-.2-1.5,0-.2,0-.3-.2-.5.7,0,1.5.2,2.2.5s1.4.7,2,1.3c.7.6,1.2,1.5,1.8,2.1s1.3-.6,1-1.5h0Z" fill="#d68a56"/>
          <path d="M137.6,394.6c-.8-2-2.5-3.5-4-4.1-1.6-.7-3.2-.8-4.9-.5-1.6.3-3.2,1-4.8,1.9-1.4.8-2.9,1.8-3.9,3.5-.2.4,0,.8.3.8,1.3-.3,2.7-1.3,3.9-2,1.2-.7,2.4-1.2,3.7-1.5,0,0-.2.1-.2.2,0,.3-.3.5-.3.8v2.7c0,1.3.2,2.8.8,3.9.7,1.2,2,.8,2.5-.6.4-1.1.4-2.4.3-3.7,0-.6,0-1.2-.1-1.8,0-.5,0-1-.2-1.5,0-.2,0-.3-.2-.5.7,0,1.5.2,2.2.5s1.4.7,2,1.3c.7.6,1.2,1.5,1.8,2.1s1.3-.6,1-1.5h0Z" fill="#d68a56"/>
          <path d="M144.4,382.1c-.3-1.5-.9-3-1.5-4.3-.2-.5-.7-.8-1.1-.4-1.1,1-1.8,2.5-2.7,3.8-1.1-1.4-1.9-3.4-2.8-5-.2-.4-.8-.4-1,0-.9,1.7-1.7,3.4-2.7,4.8-1-1.4-1.7-3.3-2.9-4.5-.3-.3-.8,0-.9.4-.6,1.7-1.4,3.2-2.4,4.5-.7-1.2-1.3-2.5-2.1-3.6-.5-.9-1.2-1.1-1.9-.5-1.5,1.3-2.3,4.4-2.8,6.7,0,.4.3.8.5.6,1.2-.9,1.5-3.3,2.3-4.8,0-.2.6-1,.8-.9,0,0,.5.9.6,1,.7,1.2,1.3,2.5,2.1,3.6.3.4.7.3.9,0,1.1-1.3,2-2.9,2.7-4.6,1,1.4,1.7,3.2,2.8,4.4.3.3.6.1.8-.2,1.1-1.3,1.9-2.9,2.8-4.5.9,1.7,1.8,3.4,2.8,5,.3.5.8.4,1.1,0,.7-1.1,1.4-2.5,2.2-3.5.4,1,.7,2.1,1.2,3s1.4,0,1.3-1.1h-.1Z" fill="#d68a56"/>
          <g>
            <path d="M119.2,321.7c-.3,0-.5.2-.6.6v1s1.9,3.3,1.7,6.4c-.3,3.4-1.7,6.9-1.7,6.9v1.8c0,.3,0,.5.2.7,0,.2.3.3.5.3l21,.7c.2,0,.4-.2.5-.4.1-.3.1-.6,0-.9l-.4-1.4c0-.1,0-.2-.1-.3,0,0-1.2-1.9-1.2-5.3s2-7.3,2-7.3c.1-.3.2-.7,0-1-.1-.3-.3-.5-.6-.5l-21.3-1.1v-.2h0ZM136.8,331.5c0,3.7,2.1,6.2,2.4,6.7l-19.4-.7c.3-1,1.5-4.2,1.8-7.6.2-2.5-.6-4.9-1.2-6.3l18.9,1.1c-.7,1.6-2.5,4-2.5,6.7h0Z" fill="#d68a56"/>
            <path d="M125.6,332.4h8c.4,0,.6-.5.6-1s-.3-.9-.6-.9h-8c-.4,0-.6.5-.6,1s.3.9.6.9Z" fill="#d68a56"/>
          </g>
          <g>
            <path d="M540,251.7c-1.1-.8-2.3-1.6-3.6-2.1-.7-.2-1.4-.4-2.1-.3-3.6.2-8.1,4.8-8.2,5,0,.2-.2.5-.2.8s0,.5.2.7c1.1,1.2,5.1,3.1,7.8,3.2v6.4c0,.5.2.9.5.9s.5-.4.5-.9v-5.6.2s1.3,1.5,3.3,4.1c1,1.2,1.8,1.8,2.5,1.8s.4,0,.6-.2c.6-.4,1-1.5,1.2-3,.3-2.1-.4-3.4-1.1-3.8-.8-.4-1.5.3-1.7,1.7,0,.5,0,1,.3,1.2s.6-.1.7-.6c0-.6.4-.5.5-.4.2.1.5.6.3,1.6,0,1-.3,1.5-.6,1.7-.2.2-.8.2-2.1-1.4-1.5-1.8-2.5-3.1-3-3.7,1.7-.5,3.4-1.8,5.1-4.3.6.3,1.1.5,1.5.6.3,0,.5-.3.6-.8,0-.5-.2-1-.5-1-.7-.1-1.6-.8-2.7-1.5l.2-.3h0ZM527.3,254.8c.7-1,3.8-2.5,5.5-3.3,0,.7,0,1.8.4,2.6.2.5.7,1,1.4,1h.2c.7-.1,1.3-.6,1.6-1.5.2-.6.3-1.3.3-1.8,1,.5,1.9,1.1,2.7,1.7,0,0,.2.1.3.2-4.4,6-10.9,2.6-12.6,1.1h.2,0Z" fill="#d68a56"/>
            <path d="M526.2,252.2s5.5-5.3,8.1-5.4c1.6,0,3.2,1.3,4.7,2.4,1.2.9,2.2,1.7,3.1,1.8.3,0,.5-.4.6-.9,0-.5-.2-1-.5-1-.7,0-1.7-.9-2.8-1.7-1.5-1.2-3.3-2.5-5-2.6-3,0-8.7,5.5-8.9,5.8s-.3.9,0,1.3c0,.2.3.4.4.3,0,0,.2,0,.3-.2v.2h0Z" fill="#d68a56"/>
          </g>
          <g>
            <path d="M539.2,461.7c-1.1-.8-2.3-1.6-3.6-2.1-.7-.2-1.4-.4-2.1-.3-3.6.2-8.1,4.8-8.2,5,0,.2-.2.5-.2.8s0,.5.2.7c1.1,1.2,5.1,3.1,7.8,3.2v6.4c0,.5.2.9.5.9s.5-.4.5-.9v-5.6.2s1.3,1.5,3.3,4.1c1,1.2,1.8,1.8,2.5,1.8s.4,0,.6-.2c.6-.4,1-1.5,1.2-3,.3-2.1-.4-3.4-1.1-3.8-.8-.4-1.5.3-1.7,1.7,0,.5,0,1,.3,1.2s.6-.1.7-.6c0-.6.4-.5.5-.4.2.1.5.6.3,1.6,0,1-.3,1.5-.6,1.7-.2.2-.8.2-2.1-1.4-1.5-1.8-2.5-3.1-3-3.7,1.7-.5,3.4-1.8,5.1-4.3.6.3,1.1.5,1.5.6.3,0,.5-.3.6-.8,0-.5-.2-1-.5-1-.7-.1-1.6-.8-2.7-1.5l.2-.3h0ZM526.5,464.8c.7-1,3.8-2.5,5.5-3.3,0,.7,0,1.8.4,2.6.2.5.7,1,1.4,1h.2c.7-.1,1.3-.6,1.6-1.5.2-.6.3-1.3.3-1.8,1,.5,1.9,1.1,2.7,1.7,0,0,.2.1.3.2-4.4,6-10.9,2.6-12.6,1.1h.2,0Z" fill="#d68a56"/>
            <path d="M525.4,462.2s5.5-5.3,8.1-5.4c1.6,0,3.2,1.3,4.7,2.4,1.2.9,2.2,1.7,3.1,1.8.3,0,.5-.4.6-.9,0-.5-.2-1-.5-1-.7,0-1.7-.9-2.8-1.7-1.5-1.2-3.3-2.5-5-2.6-3,0-8.7,5.5-8.9,5.8s-.3.9,0,1.3c0,.2.3.4.4.3,0,0,.2,0,.3-.2v.2h0Z" fill="#d68a56"/>
          </g>
        </g>
        <path d="M105,409.3c.2-4.4,18-40.1,20.7-47.3,2.7-7.2,5-102.7,5-102.7,0,0-4.9,84.3-8.1,91.3s-17.5,42.7-17.5,42.7v15.9h0Z" fill="#ca8344"/>
        <polygon points="241 66.3 260.1 83.6 244 120.9 249 169.4 246.5 127 263.6 90 267 83.4 241 66.3" fill="#c07d58"/>
      </g>
      <path d="M257.7,207.9c0,9.3-1.5,18.6-4.6,28-.6,2.1-1.7,3.1-3.3,3.1h-2.3c-1.3,0-2.2-1.1-2.8-3.4-3.2-9.8-4.7-19-4.7-27.7v-21.6c0-3.8,2.1-5.7,6.4-5.7h5c4.2,0,6.3,1.9,6.3,5.7v21.6h0ZM258.3,255.7c0,3.5-.6,5.9-1.9,7.1s-3.6,1.9-7,1.9-5.7-.6-7-1.8c-1.3-1.2-1.9-3.6-1.9-7.2s.6-6.3,1.8-7.5,3.6-1.9,7.1-1.9,6.1.6,7.2,1.8,1.7,3.7,1.7,7.6h0Z" fill="url(#radial-gradient)"/>
      <path d="M294.6,229.3c0,1.4-.2,2.3-.5,2.7-.4.4-1.2.6-2.4.6h-10.9c-2.1,0-3.1-1.1-3.1-3.3v-38c0-1.9,1-2.8,3.1-2.8h10.8c1.5,0,2.4.2,2.7.5s.5,1.3.5,2.9v37.4h-.2Z" fill="url(#radial-gradient1)"/>
      <path d="M369.1,236.7c0,18-10.4,27-31.3,27s-19.4-.8-25.9-2.4c-1.9-.4-2.8-1.8-2.8-4v-6.3c0-2.5,1-3.6,3-3.4,8.1.8,15.9,1.1,23.4,1.1s10.9-.8,13.1-2.4,3.3-4.2,3.3-8v-28.4c0-3.2-1.1-5.2-3.3-6.3-1.6-.8-5-1.1-10.1-1.1s-10.2.1-12.7.4v16c.1.4.7.5,1.8.5h10.3c1.9,0,2.8,1,2.8,3.1v7c0,2.5-1.8,3.7-5.3,3.7h-19.5c-2.5,0-4.1-.2-4.8-.6-1.3-.8-1.9-2.5-1.9-5.3v-33.1c0-2,1.2-3.2,3.6-3.7,7.4-1.8,15.8-2.7,25.2-2.7s21.6,2.3,25.8,6.9c3.7,4,5.5,10.1,5.5,18.5v23.4h-.2Z" fill="url(#radial-gradient2)"/>
      <path d="M400.8,259.5c0,1.7-.3,2.7-.8,3.1s-1.4.5-2.5.5h-10.7c-2.1,0-3.1-1.2-3.1-3.6v-67.2c0-2.5,1-3.7,3.1-3.7h10.8c1.4,0,2.3.2,2.6.7s.5,1.5.5,3v67.2h.1Z" fill="url(#radial-gradient3)"/>
      <path d="M432.3,229.3c0,1.4-.2,2.3-.5,2.7s-1.2.6-2.4.6h-10.9c-2.1,0-3.1-1.1-3.1-3.3v-38c0-1.9,1-2.8,3.1-2.8h10.8c1.5,0,2.4.2,2.7.5s.5,1.3.5,2.9v37.4h-.2Z" fill="url(#radial-gradient4)"/>
      <path d="M217,293.4l-12.9,37.9c-.5,1.5-1.3,2.3-2.3,2.3h-7.1c-.7,0-1-.4-1-1.2s.2-1.1.5-2l10.7-31.3h-21.3c-1.2,0-1.8-.6-1.8-1.9v-19c0-1.2.7-1.8,2-1.8h6.2c1.1,0,1.7.7,1.7,2.2v11.7h23.6c1.3,0,2,.5,2,1.6s0,1-.3,1.6h0Z" fill="#231f20"/>
      <path d="M255.6,311c0,9.2-1.4,15.3-4.3,18.4s-7.6,4.6-14.2,4.6-8.9-.5-12-1.4c-1-.3-1.5-1-1.5-2.2v-4.5c0-1.1.7-1.6,2.2-1.4,3.7.4,7,.5,9.8.5s6.1-.5,7.5-1.5,2.1-3,2.1-5.9v-11.3c0-3-.9-5-2.7-6.1-1.5-.9-4.1-1.3-7.9-1.3s-6.4.3-9.4.8c-1.1.2-1.7-.3-1.7-1.4v-4.5c0-1.2.5-1.9,1.4-2.3,2.7-1,6.7-1.5,12.1-1.5s10.1.9,12.8,2.8c2.1,1.5,3.5,3.7,4.4,6.4s1.3,6.7,1.3,11.8h0Z" fill="#231f20"/>
      <path d="M299.2,331.5c0,1-.2,1.6-.5,1.8s-.8.3-1.4.3h-6.2c-1.3,0-1.9-.7-1.9-2.1v-28c0-2.6-1.6-4.1-4.8-4.5-2.1-.2-5-.4-8.5-.4s-7.2.1-10.9.4c-1.3.1-2-.4-2-1.6v-4.5c0-1.3.6-2,1.9-2.1,5.9-.6,11.3-.9,16.2-.9s10.9,1,13.8,3.1,4.3,5.6,4.3,10.4v28.1h0ZM274,331.5c0,1-.2,1.6-.5,1.8s-.8.3-1.4.3h-6.2c-1.2,0-1.8-.7-1.8-2.1v-12.9c0-2.9.7-5.7,2.2-8.4.4-.7,1.1-1.1,1.9-1.1h4.1c1.2,0,1.7.6,1.7,1.7v20.7h0Z" fill="#231f20"/>
      <path d="M340.2,331.4c0,1-.1,1.6-.4,1.9s-.9.4-1.9.4h-13.6c-1.1,0-1.6-.6-1.6-1.8v-5.1c0-.8.1-1.4.4-1.6s.8-.3,1.4-.3h5.8v-25.9h-2.7c-1.2,0-1.8-.5-1.8-1.6v-4.3c0-.9,0-1.4.2-1.6s.5-.4,1.2-.6c3.9-.5,10.9-.8,21.1-.8s10.5,1.1,13.2,3.4,4,6.1,4,11.7v26.5c0,1.4-.6,2.1-1.7,2.1h-6.5c-1.2,0-1.7-.7-1.7-2.1v-26.5c0-2.4-.6-4-1.8-4.9s-3.1-1.4-5.9-1.4h-7.8v32.6h0Z" fill="#231f20"/>
      <path d="M412.6,332c0,1.1-.4,1.6-1.1,1.6h-7.7c-.9,0-1.5-.2-1.9-.5,0,0-.4-.5-1.1-1.5l-14.3-19.9c-.3,0-.7,1.8-1.4,5.2l-2.8,14.5c-.3,1.5-1.1,2.2-2.3,2.2h-5.7c-1.2,0-1.8-.7-1.8-2.1v-.4l1.9-10.3c.9-4.7,2.4-7.9,4.4-9.8l4.3-3.9-10.1-13.4c-.6-.7-.8-1.3-.8-1.7,0-1.2.4-1.7,1.2-1.7h7.5c.8,0,1.7.6,2.5,1.7l13.1,17.6c.5-.5,1.1-2.1,1.6-4.8l2.3-12.3c.3-1.5,1-2.2,2-2.2h6.4c1.4,0,2.1.4,2.1,1.2s0,.8-.3,1.6l-1.4,7.7c-.9,4.4-2.6,7.7-5.1,9.9l-4.1,3.6,11.8,16.2c.5.7.8,1.2.8,1.6h0Z" fill="#231f20"/>
      <path d="M453.6,291.4c0,.5-.2,1.3-.6,2.4l-3,10.1c-.8,2.7-1.9,4.9-3.2,6.6s-3.3,3.6-6,5.6l8.7,7.4c1.1.9,1.7,2,1.7,3.1v4.7c0,1.6-.7,2.4-2,2.4h-29.8c-.9,0-1.4,0-1.6-.3s-.4-.6-.4-1.4v-5.4c0-.8.1-1.3.4-1.5s.7-.4,1.4-.4h19.9c.4,0,.6-.1.6-.4s0-.3-.4-.4c-2.4-1.3-4.9-3.2-7.7-5.6-6.1-5.2-10.2-10.8-12.4-16.6l-3.6-9.2c-.6-1.6-.2-2.4,1.4-2.4h6.7c1,0,1.9.7,2.4,2.2l3.6,8.9c2.3,5.4,4.4,9.1,6.5,11.1.8-1.4,1.9-4.5,3.3-9.3l3-10c.6-2,1.4-2.9,2.3-2.9h6.8c1.1,0,1.6.4,1.6,1.3h.4Z" fill="#231f20"/>
      <path d="M500,319.3c0,4.7-1.1,8.4-3.4,10.9s-5.5,3.8-9.7,3.8-5.8-.4-7.7-1.1c-.7-.3-1.2-.5-1.3-.7s-.2-.7-.2-1.5v-4.1c0-1.2.7-1.7,2-1.5,2.4.2,3.8.3,4.2.3,4.2,0,6.2-1.9,6.2-5.7v-14.3c0-4.2-2.1-6.4-6.2-6.4h-6c-2.7,0-4.4.6-5.3,1.9v30.8c0,.9-.1,1.4-.3,1.6s-.7.3-1.4.3h-6.5c-.7,0-1.2-.1-1.4-.3s-.3-.7-.3-1.6v-28.4c0-1.3-.4-2.5-1.3-3.6l-2.1-2.4c-.7-.7-1-1.3-1-1.7s.3-.9,1-1.6l4-3.7c.7-.6,1.3-.9,1.9-.9s.9.2,1.4.6l1.6,1.7c.7.8,1.5,1.8,2.5,3,3.5-3.2,6.7-4.8,9.6-4.8h6.2c8.9,0,13.3,4.5,13.3,13.4v15.9h.2,0Z" fill="#231f20"/>
    </g>
  </g>
</svg>